<svg xmlns="http://www.w3.org/2000/svg" width="556.587" height="138.934" viewBox="0 0 147.264 36.76"><path d="M0 0h147.264v36.76H0z" style="fill:#fff;stroke-width:.264583;"/><path d="M11.038 30.877h10m-10-10h10m-10-10h10m-10-9.997h10m-10 29.997v-30m9.996 30v-30M11.038 30.877h10m-10-10h10m-10-10h10m-10-9.997h10m-10 29.997v-30m9.996 30v-30M1.038 20.877h10m-10-9.997h10m-10 9.997v-10m9.996 10v-10M21.038 20.877h10m-10-9.997h10m-10 9.997v-10m9.996 10v-10" style="fill:none;stroke:#000;stroke-width:.140582;stroke-linecap:butt;stroke-linejoin:miter;stroke-miterlimit:10;stroke-dasharray:none;stroke-opacity:1"/><path d="M2.737 32.108c0-.087 0-.107-.054-.107-.235-.005-.616-.033-.963-.203-.413-.207-.57-.45-.67-.6-.008-.02-.033-.02-.082-.02-.087 0-.091.004-.091.1v.061c.52.943 1.389 1.125 1.781 1.125.079 0 .079-.004.079-.108zm0 0" aria-label="#" style="fill:#000;fill-opacity:1;fill-rule:nonzero;stroke:none;stroke-width:.352778"/><path d="M2.7 32.463h11.606v-.462H2.7Z" style="fill:#000;fill-opacity:1;fill-rule:nonzero;stroke:none;stroke-width:.352778"/><path d="M16.13 33.125c-.522-.943-1.39-1.124-1.782-1.124-.079 0-.079.004-.079.107v.248c0 .087 0 .108.054.108.235.004.616.033.959.202.417.211.575.45.67.604.012.016.037.016.086.016.087 0 .091-.004.091-.099zm1.678-1.017c0-.103 0-.107-.079-.107-.392 0-1.26.186-1.782 1.124v.062c0 .095.005.1.091.1.075 0 .079-.005.095-.03.319-.504.848-.777 1.63-.793.045 0 .045-.03.045-.108zm0 0" aria-label="$%" style="fill:#000;fill-opacity:1;fill-rule:nonzero;stroke:none;stroke-width:.352778"/><path d="M17.77 32.463h11.606v-.462H17.77Z" style="fill:#000;fill-opacity:1;fill-rule:nonzero;stroke:none;stroke-width:.352778"/><path d="M31.2 31.277c0-.095-.005-.1-.092-.1-.074 0-.078.005-.095.03-.318.504-.847.781-1.629.794-.045 0-.045.029-.045.107v.248c0 .103 0 .108.078.108.393 0 1.261-.186 1.782-1.125zm0 0" aria-label="&amp;" style="fill:#000;fill-opacity:1;fill-rule:nonzero;stroke:none;stroke-width:.352778"/><path d="M13.785 35.507c.009-.041.038-.148.046-.19.037-.149.037-.153.103-.248.091-.136.223-.26.414-.26.099 0 .16.058.16.19 0 .157-.12.475-.173.616-.037.09-.037.107-.037.145 0 .16.132.24.256.24.273 0 .389-.393.389-.43 0-.03-.02-.038-.041-.038-.034 0-.042.02-.05.046-.066.231-.182.343-.29.343q-.069.001-.07-.095a.5.5 0 0 1 .054-.195c.041-.107.165-.43.165-.587 0-.21-.148-.314-.351-.314a.57.57 0 0 0-.455.244.275.275 0 0 0-.285-.244c-.103 0-.174.066-.215.153-.07.132-.1.273-.1.277 0 .025.021.037.046.037.033 0 .037-.012.058-.082.033-.14.083-.306.203-.306.074 0 .09.07.09.132 0 .05-.016.103-.037.198-.008.021-.05.186-.062.228l-.103.421c-.008.042-.025.112-.025.125 0 .062.05.086.087.086a.12.12 0 0 0 .112-.07 1 1 0 0 0 .045-.17zm0 0" aria-label="n" style="fill:#000;fill-opacity:1;fill-rule:nonzero;stroke:none;stroke-width:.352778"/><path d="M17.09 35.036c.04 0 .099 0 .099-.066s-.066-.066-.112-.066h-1.765c-.046 0-.112 0-.112.066s.058.066.1.066zm-.013.595c.046 0 .112 0 .112-.066s-.058-.066-.1-.066H15.3c-.04 0-.099 0-.099.066s.066.066.112.066zm1.076-.235c.045-.042.161-.133.207-.174.173-.161.339-.314.339-.57 0-.335-.281-.55-.633-.55-.335 0-.558.256-.558.504 0 .14.112.157.149.157a.144.144 0 0 0 .145-.149c0-.144-.14-.144-.174-.144a.44.44 0 0 1 .41-.277c.26 0 .396.223.396.459 0 .293-.207.504-.537.847l-.356.364c-.033.033-.033.037-.033.107h1.112l.079-.504h-.087a1 1 0 0 1-.062.252c-.017.02-.232.02-.277.02h-.5zm0 0" aria-label="=2" style="fill:#000;fill-opacity:1;fill-rule:nonzero;stroke:none;stroke-width:.352778"/><path d="M51.517 30.877h6m-6-6h6m-6-6h6m-6-6h6m-6-6h6m-6-5.998h6m-6 29.998v-30m5.997 30v-30M51.517 30.877h6m-6-6h6m-6-6h6m-6-6h6m-6-6h6m-6-5.998h6m-6 29.998v-30m5.997 30v-30M45.517 24.877h6m-6-6h6m-6-6h6m-6-5.998h6m-6 17.998v-18m5.997 18v-18M57.517 24.877h6m-6-6h6m-6-6h6m-6-5.998h6m-6 17.998v-18m5.997 18v-18M39.517 18.877h6m-6-5.998h6m-6 5.998v-6m5.997 6v-6M63.516 18.877h6m-6-5.998h6m-6 5.998v-6m5.998 6v-6" style="fill:none;stroke:#000;stroke-width:.140582;stroke-linecap:butt;stroke-linejoin:miter;stroke-miterlimit:10;stroke-dasharray:none;stroke-opacity:1"/><path d="M41.216 32.108c0-.087 0-.107-.054-.107-.235-.005-.616-.033-.963-.203-.413-.207-.57-.45-.67-.6-.008-.02-.033-.02-.082-.02-.087 0-.091.004-.091.1v.061c.52.943 1.389 1.125 1.782 1.125.078 0 .078-.004.078-.108zm0 0" aria-label="#" style="fill:#000;fill-opacity:1;fill-rule:nonzero;stroke:none;stroke-width:.352778"/><path d="M41.178 32.463h11.607v-.462H41.178Z" style="fill:#000;fill-opacity:1;fill-rule:nonzero;stroke:none;stroke-width:.352778"/><path d="M54.608 33.125c-.521-.943-1.39-1.124-1.782-1.124-.079 0-.079.004-.079.107v.248c0 .087 0 .108.054.108.236.004.616.033.96.202.417.211.574.45.669.604.012.016.037.016.087.016.087 0 .09-.004.09-.099zm1.678-1.017c0-.103 0-.107-.078-.107-.393 0-1.261.186-1.782 1.124v.062c0 .095.004.1.09.1.075 0 .08-.005.096-.03.318-.504.847-.777 1.629-.793.045 0 .045-.03.045-.108zm0 0" aria-label="$%" style="fill:#000;fill-opacity:1;fill-rule:nonzero;stroke:none;stroke-width:.352778"/><path d="M56.248 32.463h11.607v-.462H56.248Z" style="fill:#000;fill-opacity:1;fill-rule:nonzero;stroke:none;stroke-width:.352778"/><path d="M69.678 31.277c0-.095-.005-.1-.091-.1-.075 0-.079.005-.096.03-.318.504-.847.781-1.628.794-.046 0-.046.029-.046.107v.248c0 .103 0 .108.079.108.392 0 1.26-.186 1.782-1.125zm0 0" aria-label="&amp;" style="fill:#000;fill-opacity:1;fill-rule:nonzero;stroke:none;stroke-width:.352778"/><path d="M52.264 35.507c.008-.041.037-.148.045-.19.037-.149.037-.153.103-.248.091-.136.224-.26.414-.26.1 0 .161.058.161.19 0 .157-.12.475-.174.616-.037.09-.037.107-.037.145 0 .16.133.24.257.24.272 0 .388-.393.388-.43 0-.03-.02-.038-.041-.038-.033 0-.042.02-.05.046-.066.231-.182.343-.29.343q-.069.001-.07-.095a.5.5 0 0 1 .054-.195c.042-.107.166-.43.166-.587 0-.21-.15-.314-.352-.314a.57.57 0 0 0-.455.244.275.275 0 0 0-.285-.244c-.103 0-.173.066-.215.153-.07.132-.099.273-.099.277 0 .025.02.037.045.037.034 0 .038-.012.058-.082.033-.14.083-.306.203-.306.074 0 .09.07.09.132 0 .05-.016.103-.036.198-.009.021-.05.186-.062.228l-.104.421c-.008.042-.024.112-.024.125 0 .062.05.086.086.086a.12.12 0 0 0 .112-.07 1 1 0 0 0 .045-.17zm0 0" aria-label="n" style="fill:#000;fill-opacity:1;fill-rule:nonzero;stroke:none;stroke-width:.352778"/><path d="M55.569 35.036c.041 0 .099 0 .099-.066s-.066-.066-.112-.066h-1.765c-.045 0-.111 0-.111.066s.057.066.099.066zm-.013.595c.046 0 .112 0 .112-.066s-.058-.066-.1-.066h-1.79c-.04 0-.098 0-.098.066s.066.066.111.066zm.993-.6c.223 0 .363.162.363.46 0 .351-.202.455-.351.455-.153 0-.364-.058-.463-.207.103 0 .174-.062.174-.157 0-.091-.067-.153-.157-.153-.075 0-.153.045-.153.161 0 .265.285.438.607.438.372 0 .633-.256.633-.537 0-.236-.182-.447-.471-.509.223-.078.388-.273.388-.496s-.252-.384-.546-.384c-.301 0-.529.161-.529.376 0 .103.07.149.145.149a.14.14 0 0 0 .145-.145c0-.103-.091-.14-.153-.145.12-.153.335-.165.384-.165.075 0 .285.025.285.314a.53.53 0 0 1-.12.36c-.082.087-.148.09-.318.103-.054.004-.078.009-.078.042 0 .04.024.04.074.04zm0 0" aria-label="=3" style="fill:#000;fill-opacity:1;fill-rule:nonzero;stroke:none;stroke-width:.352778"/><path d="M90.852 30.877h4.286m-4.286-4.286h4.286m-4.286-4.285h4.286m-4.286-4.286h4.286m-4.286-4.285h4.286m-4.286-4.286h4.286m-4.286-4.286h4.286M90.852.88h4.286m-4.286 29.998v-30m4.284 30v-30M90.852 30.877h4.286m-4.286-4.286h4.286m-4.286-4.285h4.286m-4.286-4.286h4.286m-4.286-4.285h4.286m-4.286-4.286h4.286m-4.286-4.286h4.286M90.852.88h4.286m-4.286 29.998v-30m4.284 30v-30M86.567 26.591h4.285m-4.285-4.285h4.285m-4.285-4.286h4.285m-4.285-4.285h4.285m-4.285-4.286h4.285m-4.285-4.284h4.285M86.567 26.59V5.163m4.284 21.428V5.163M95.138 26.591h4.285m-4.285-4.285h4.285m-4.285-4.286h4.285m-4.285-4.285h4.285m-4.285-4.286h4.285m-4.285-4.284h4.285M95.138 26.59V5.163m4.284 21.428V5.163M82.28 22.306h4.287M82.28 18.02h4.286m-4.286-4.285h4.286M82.28 9.45h4.286M82.28 22.306V9.449m4.284 12.857V9.449M99.423 22.306h4.286m-4.286-4.286h4.286m-4.286-4.285h4.286M99.423 9.45h4.286m-4.286 12.856V9.449m4.285 12.857V9.449M77.995 18.02h4.286m-4.286-4.284h4.286m-4.286 4.284v-4.285m4.284 4.285v-4.285M103.71 18.02h4.285m-4.286-4.284h4.286m-4.286 4.284v-4.285m4.284 4.285v-4.285" style="fill:none;stroke:#000;stroke-width:.140582;stroke-linecap:butt;stroke-linejoin:miter;stroke-miterlimit:10;stroke-dasharray:none;stroke-opacity:1"/><path d="M79.694 32.108c0-.087 0-.107-.053-.107-.236-.005-.616-.033-.964-.203-.413-.207-.57-.45-.67-.6-.008-.02-.032-.02-.082-.02-.087 0-.09.004-.09.1v.061c.52.943 1.388 1.125 1.78 1.125.08 0 .08-.004.08-.108zm0 0" aria-label="#" style="fill:#000;fill-opacity:1;fill-rule:nonzero;stroke:none;stroke-width:.352778"/><path d="M79.657 32.463h11.606v-.462H79.657Z" style="fill:#000;fill-opacity:1;fill-rule:nonzero;stroke:none;stroke-width:.352778"/><path d="M93.086 33.125c-.521-.943-1.39-1.124-1.782-1.124-.078 0-.078.004-.078.107v.248c0 .087 0 .108.053.108.236.004.616.033.96.202.417.211.574.45.67.604.012.016.036.016.086.016.087 0 .09-.004.09-.099zm1.678-1.017c0-.103 0-.107-.078-.107-.393 0-1.261.186-1.782 1.124v.062c0 .095.004.1.091.1.074 0 .079-.005.095-.03.318-.504.848-.777 1.629-.793.045 0 .045-.03.045-.108zm0 0" aria-label="$%" style="fill:#000;fill-opacity:1;fill-rule:nonzero;stroke:none;stroke-width:.352778"/><path d="M94.727 32.463h11.606v-.462H94.727Z" style="fill:#000;fill-opacity:1;fill-rule:nonzero;stroke:none;stroke-width:.352778"/><path d="M108.156 31.277c0-.095-.004-.1-.091-.1-.075 0-.079.005-.095.03-.319.504-.848.781-1.63.794-.045 0-.045.029-.045.107v.248c0 .103 0 .108.079.108.393 0 1.261-.186 1.782-1.125zm0 0" aria-label="&amp;" style="fill:#000;fill-opacity:1;fill-rule:nonzero;stroke:none;stroke-width:.352778"/><path d="M90.742 35.507c.008-.041.037-.148.045-.19.038-.149.038-.153.104-.248.09-.136.223-.26.413-.26.1 0 .161.058.161.19 0 .157-.12.475-.173.616-.038.09-.038.107-.038.145 0 .16.133.24.257.24.273 0 .388-.393.388-.43 0-.03-.02-.038-.04-.038-.034 0-.042.02-.05.046-.067.231-.182.343-.29.343q-.069.001-.07-.095a.5.5 0 0 1 .054-.195c.04-.107.165-.43.165-.587 0-.21-.149-.314-.351-.314a.57.57 0 0 0-.455.244.275.275 0 0 0-.286-.244c-.103 0-.173.066-.214.153-.07.132-.1.273-.1.277 0 .025.021.037.046.037.033 0 .037-.012.058-.082.033-.14.082-.306.202-.306.075 0 .091.07.091.132 0 .05-.016.103-.037.198-.008.021-.05.186-.062.228l-.103.421c-.009.042-.025.112-.025.125 0 .062.05.086.087.086a.12.12 0 0 0 .111-.07 1 1 0 0 0 .046-.17zm0 0" aria-label="n" style="fill:#000;fill-opacity:1;fill-rule:nonzero;stroke:none;stroke-width:.352778"/><path d="M94.047 35.036c.041 0 .1 0 .1-.066s-.067-.066-.112-.066h-1.766c-.045 0-.111 0-.111.066s.058.066.099.066zm-.012.595c.045 0 .111 0 .111-.066s-.058-.066-.099-.066h-1.79c-.041 0-.1 0-.1.066s.067.066.112.066zm1.389-1.48c0-.058 0-.078-.058-.078-.037 0-.041.004-.07.041l-.898 1.302v.091h.794v.236c0 .103-.008.136-.223.136h-.066v.091c.24-.008.244-.008.405-.008s.165 0 .405.008v-.09h-.066c-.215 0-.223-.034-.223-.137v-.236h.297v-.09h-.297zm-.211.228v1.037h-.715zm0 0" aria-label="=4" style="fill:#000;fill-opacity:1;fill-rule:nonzero;stroke:none;stroke-width:.352778"/><path d="M129.806 30.877h3.334m-3.334-3.333h3.334m-3.334-3.334h3.334m-3.334-3.333h3.334m-3.334-3.333h3.334m-3.334-3.334h3.334m-3.334-3.333h3.334m-3.334-3.333h3.334m-3.334-3.334h3.334M129.806.878h3.334m-3.334 29.999v-30m3.333 30v-30M129.806 30.877h3.334m-3.334-3.333h3.334m-3.334-3.334h3.334m-3.334-3.333h3.334m-3.334-3.333h3.334m-3.334-3.334h3.334m-3.334-3.333h3.334m-3.334-3.333h3.334m-3.334-3.334h3.334M129.806.878h3.334m-3.334 29.999v-30m3.333 30v-30M126.473 27.544h3.333m-3.333-3.334h3.333m-3.333-3.333h3.333m-3.333-3.333h3.333m-3.333-3.334h3.333m-3.333-3.333h3.333m-3.333-3.333h3.333m-3.333-3.332h3.333m-3.333 23.332V4.21m3.332 23.334V4.21M133.14 27.544h3.333m-3.333-3.334h3.333m-3.333-3.333h3.333m-3.333-3.333h3.333m-3.333-3.334h3.333m-3.333-3.333h3.333m-3.333-3.333h3.333m-3.333-3.332h3.333m-3.333 23.332V4.21m3.332 23.334V4.21M123.14 24.21h3.333m-3.333-3.333h3.333m-3.333-3.333h3.333m-3.333-3.334h3.333m-3.333-3.333h3.333m-3.333-3.332h3.333M123.14 24.21V7.544m3.332 16.666V7.544M136.473 24.21h3.333m-3.333-3.333h3.333m-3.333-3.333h3.333m-3.333-3.334h3.333m-3.333-3.333h3.333m-3.333-3.332h3.333m-3.333 16.665V7.544m3.332 16.666V7.544M119.806 20.877h3.334m-3.334-3.333h3.334m-3.334-3.334h3.334m-3.334-3.332h3.334m-3.334 10v-10m3.333 10v-10M139.806 20.877h3.334m-3.334-3.333h3.334m-3.334-3.334h3.334m-3.334-3.332h3.334m-3.334 10v-10m3.333 10v-10M116.473 17.544h3.333m-3.333-3.332h3.333m-3.333 3.332V14.21m3.332 3.334V14.21M143.14 17.544h3.333m-3.333-3.332h3.333m-3.333 3.332V14.21m3.332 3.334V14.21" style="fill:none;stroke:#000;stroke-width:.140582;stroke-linecap:butt;stroke-linejoin:miter;stroke-miterlimit:10;stroke-dasharray:none;stroke-opacity:1"/><path d="M118.173 32.108c0-.087 0-.107-.054-.107-.236-.005-.616-.033-.963-.203-.414-.207-.57-.45-.67-.6-.008-.02-.033-.02-.083-.02-.086 0-.09.004-.09.1v.061c.52.943 1.388 1.125 1.781 1.125.079 0 .079-.004.079-.108zm0 0" aria-label="#" style="fill:#000;fill-opacity:1;fill-rule:nonzero;stroke:none;stroke-width:.352778"/><path d="M118.135 32.463h11.606v-.462h-11.606z" style="fill:#000;fill-opacity:1;fill-rule:nonzero;stroke:none;stroke-width:.352778"/><path d="M131.564 33.125c-.52-.943-1.389-1.124-1.782-1.124-.078 0-.078.004-.078.107v.248c0 .087 0 .108.054.108.235.004.616.033.959.202.417.211.574.45.67.604.012.016.037.016.086.016.087 0 .091-.004.091-.099zm1.679-1.017c0-.103 0-.107-.079-.107-.393 0-1.26.186-1.782 1.124v.062c0 .095.004.1.091.1.075 0 .079-.005.095-.03.319-.504.848-.777 1.63-.793.045 0 .045-.03.045-.108zm0 0" aria-label="$%" style="fill:#000;fill-opacity:1;fill-rule:nonzero;stroke:none;stroke-width:.352778"/><path d="M133.205 32.463h11.606v-.462h-11.606z" style="fill:#000;fill-opacity:1;fill-rule:nonzero;stroke:none;stroke-width:.352778"/><path d="M146.634 31.277c0-.095-.004-.1-.09-.1-.075 0-.08.005-.096.03-.318.504-.848.781-1.629.794-.045 0-.045.029-.045.107v.248c0 .103 0 .108.078.108.393 0 1.261-.186 1.782-1.125zm0 0" aria-label="&amp;" style="fill:#000;fill-opacity:1;fill-rule:nonzero;stroke:none;stroke-width:.352778"/><path d="M129.22 35.507c.008-.041.037-.148.046-.19.037-.149.037-.153.103-.248.091-.136.223-.26.413-.26.1 0 .162.058.162.19 0 .157-.12.475-.174.616-.037.09-.037.107-.037.145 0 .16.132.24.256.24.273 0 .389-.393.389-.43 0-.03-.021-.038-.042-.038-.033 0-.04.02-.05.046-.065.231-.181.343-.289.343q-.069.001-.07-.095c0-.062.025-.124.054-.195.041-.107.165-.43.165-.587 0-.21-.149-.314-.351-.314a.57.57 0 0 0-.455.244.275.275 0 0 0-.285-.244c-.104 0-.174.066-.215.153-.07.132-.1.273-.1.277 0 .025.021.037.046.037.033 0 .037-.012.058-.082.033-.14.083-.306.203-.306.074 0 .09.07.09.132 0 .05-.016.103-.037.198-.008.021-.05.186-.062.228l-.103.421c-.008.042-.025.112-.025.125 0 .062.05.086.087.086a.12.12 0 0 0 .112-.07 1 1 0 0 0 .045-.17zm0 0" aria-label="n" style="fill:#000;fill-opacity:1;fill-rule:nonzero;stroke:none;stroke-width:.352778"/><path d="M132.525 35.036c.042 0 .1 0 .1-.066s-.067-.066-.112-.066h-1.765c-.046 0-.112 0-.112.066s.058.066.1.066zm-.012.595c.045 0 .112 0 .112-.066s-.058-.066-.1-.066h-1.79c-.041 0-.099 0-.099.066s.066.066.112.066zm.674-1.24a1 1 0 0 0 .269.037c.35 0 .562-.244.562-.289 0-.029-.017-.037-.033-.037-.004 0-.008 0-.038.012a1.1 1.1 0 0 1-.388.079c-.165 0-.302-.046-.393-.079-.025-.012-.033-.012-.033-.012-.037 0-.037.029-.037.082v.823c0 .05 0 .083.045.083.021 0 .03-.013.046-.033.033-.042.14-.186.376-.186.157 0 .236.128.26.182a.9.9 0 0 1 .054.343c0 .103-.004.252-.082.376a.37.37 0 0 1-.315.174.45.45 0 0 1-.425-.298h.024c.079 0 .14-.05.14-.137 0-.103-.078-.14-.135-.14-.05 0-.141.029-.141.149 0 .252.22.508.542.508.35 0 .649-.273.649-.62 0-.326-.236-.616-.567-.616a.56.56 0 0 0-.38.14zm0 0" aria-label="=5" style="fill:#000;fill-opacity:1;fill-rule:nonzero;stroke:none;stroke-width:.352778"/></svg>
