<?xml version="1.0" encoding="UTF-8" standalone="no"?>
<!-- Created with Inkscape (http://www.inkscape.org/) -->

<svg
   width="147.26372mm"
   height="36.759548mm"
   viewBox="0 0 147.26373 36.759548"
   version="1.1"
   id="svg1"
   inkscape:version="1.3.2 (091e20e, 2023-11-25)"
   sodipodi:docname="diagrams.svg"
   xmlns:inkscape="http://www.inkscape.org/namespaces/inkscape"
   xmlns:sodipodi="http://sodipodi.sourceforge.net/DTD/sodipodi-0.dtd"
   xmlns="http://www.w3.org/2000/svg"
   xmlns:svg="http://www.w3.org/2000/svg">
  <sodipodi:namedview
     id="namedview1"
     pagecolor="#ffffff"
     bordercolor="#000000"
     borderopacity="0.25"
     inkscape:showpageshadow="2"
     inkscape:pageopacity="0.0"
     inkscape:pagecheckerboard="0"
     inkscape:deskcolor="#d1d1d1"
     inkscape:document-units="mm"
     inkscape:zoom="1.1732212"
     inkscape:cx="262.09891"
     inkscape:cy="57.960085"
     inkscape:window-width="1512"
     inkscape:window-height="921"
     inkscape:window-x="0"
     inkscape:window-y="33"
     inkscape:window-maximized="0"
     inkscape:current-layer="svg1" />
  <defs
     id="defs1" />
  <rect
     style="fill:#ffffff;stroke-width:0.264583;-inkscape-stroke:none;paint-order:markers fill stroke"
     id="rect1"
     width="147.26372"
     height="36.759548"
     x="0"
     y="0"
     inkscape:label="rect1" />
  <path
     id="path133"
     d="m 11.037763,30.876924 h 10.00012 M 11.037763,20.876797 h 10.00012 M 11.037763,10.876676 h 10.00012 M 11.037763,0.88006923 h 10.00012 M 11.037763,30.876924 V 0.87655556 M 21.034373,30.876924 V 0.87655556"
     style="fill:none;stroke:#000000;stroke-width:0.140582;stroke-linecap:butt;stroke-linejoin:miter;stroke-miterlimit:10;stroke-dasharray:none;stroke-opacity:1"
     clip-path="none" />
  <path
     id="path135"
     d="m 11.037763,30.876924 h 10.00012 M 11.037763,20.876797 h 10.00012 M 11.037763,10.876676 h 10.00012 M 11.037763,0.88006923 h 10.00012 M 11.037763,30.876924 V 0.87655556 M 21.034373,30.876924 V 0.87655556"
     style="fill:none;stroke:#000000;stroke-width:0.140582;stroke-linecap:butt;stroke-linejoin:miter;stroke-miterlimit:10;stroke-dasharray:none;stroke-opacity:1"
     clip-path="none" />
  <path
     id="path137"
     d="M 1.0376349,20.876797 H 11.037763 M 1.0376349,10.880186 H 11.037763 M 1.0376349,20.876797 V 10.876676 M 11.034245,20.876797 V 10.876676"
     style="fill:none;stroke:#000000;stroke-width:0.140582;stroke-linecap:butt;stroke-linejoin:miter;stroke-miterlimit:10;stroke-dasharray:none;stroke-opacity:1"
     clip-path="none" />
  <path
     id="path139"
     d="M 21.037883,20.876797 H 31.038004 M 21.037883,10.880186 H 31.038004 M 21.037883,20.876797 V 10.876676 M 31.03449,20.876797 V 10.876676"
     style="fill:none;stroke:#000000;stroke-width:0.140582;stroke-linecap:butt;stroke-linejoin:miter;stroke-miterlimit:10;stroke-dasharray:none;stroke-opacity:1"
     clip-path="none" />
  <path
     id="path141"
     d="m 2.7369078,32.108078 c 0,-0.08682 0,-0.107487 -0.053743,-0.107487 -0.2356445,-0.0041 -0.615983,-0.03307 -0.9632486,-0.202571 -0.4134115,-0.206706 -0.5705078,-0.450619 -0.6697266,-0.599447 -0.00827,-0.02067 -0.033073,-0.02067 -0.0826823,-0.02067 -0.0868164,0 -0.0909505,0.0041 -0.0909505,0.09922 v 0.06201 c 0.5208985,0.942578 1.3890625,1.124479 1.7818033,1.124479 0.078548,0 0.078548,-0.0041 0.078548,-0.107487 z m 0,0"
     style="fill:#000000;fill-opacity:1;fill-rule:nonzero;stroke:none;stroke-width:0.352778"
     aria-label="#"
     clip-path="none" />
  <path
     id="path143"
     d="M 2.6994334,32.463154 H 14.306174 V 32.001368 H 2.6994334 Z"
     style="fill:#000000;fill-opacity:1;fill-rule:nonzero;stroke:none;stroke-width:0.352778"
     clip-path="none" />
  <path
     id="path145"
     d="m 16.12937,33.12507 c -0.520898,-0.942578 -1.389062,-1.124479 -1.781803,-1.124479 -0.07855,0 -0.07855,0.0041 -0.07855,0.107487 v 0.248047 c 0,0.08682 0,0.107487 0.05374,0.107487 0.235645,0.0041 0.615983,0.03307 0.959115,0.202572 0.417545,0.210839 0.574642,0.450618 0.669726,0.60358 0.0124,0.01654 0.03721,0.01654 0.08682,0.01654 0.08682,0 0.09095,-0.0041 0.09095,-0.09922 z m 1.678451,-1.016992 c 0,-0.103353 0,-0.107487 -0.07855,-0.107487 -0.39274,0 -1.260904,0.186035 -1.781803,1.124479 v 0.06201 c 0,0.09509 0.0041,0.09922 0.09095,0.09922 0.07441,0 0.07855,-0.0041 0.09508,-0.02894 0.318327,-0.504362 0.847494,-0.777213 1.628841,-0.79375 0.04548,0 0.04548,-0.02894 0.04548,-0.107487 z m 0,0"
     style="fill:#000000;fill-opacity:1;fill-rule:nonzero;stroke:none;stroke-width:0.352778"
     aria-label="$%"
     clip-path="none" />
  <path
     id="path147"
     d="M 17.769747,32.463154 H 29.376488 V 32.001368 H 17.769747 Z"
     style="fill:#000000;fill-opacity:1;fill-rule:nonzero;stroke:none;stroke-width:0.352778"
     clip-path="none" />
  <path
     id="path149"
     d="m 31.19925,31.277121 c 0,-0.09509 -0.0041,-0.09922 -0.09095,-0.09922 -0.07441,0 -0.07855,0.0041 -0.09509,0.02894 -0.318327,0.504362 -0.847493,0.781348 -1.628841,0.79375 -0.04547,0 -0.04547,0.02894 -0.04547,0.107487 v 0.248047 c 0,0.103353 0,0.107487 0.07855,0.107487 0.392741,0 1.260905,-0.186035 1.781803,-1.124479 z m 0,0"
     style="fill:#000000;fill-opacity:1;fill-rule:nonzero;stroke:none;stroke-width:0.352778"
     aria-label="&amp;"
     clip-path="none" />
  <path
     id="path151"
     d="m 13.785327,35.507354 c 0.0083,-0.04134 0.03721,-0.148828 0.04547,-0.190169 0.03721,-0.148828 0.03721,-0.152962 0.103353,-0.248047 0.09095,-0.136426 0.223242,-0.260449 0.413411,-0.260449 0.09922,0 0.161231,0.05788 0.161231,0.190169 0,0.157097 -0.119889,0.475423 -0.173633,0.615983 -0.03721,0.09095 -0.03721,0.107487 -0.03721,0.144694 0,0.161231 0.132292,0.239779 0.256315,0.239779 0.272852,0 0.388607,-0.392741 0.388607,-0.429948 0,-0.02894 -0.02067,-0.03721 -0.04134,-0.03721 -0.03307,0 -0.04134,0.02067 -0.04961,0.04548 -0.06614,0.231511 -0.181901,0.343132 -0.289388,0.343132 -0.04547,0 -0.07028,-0.02894 -0.07028,-0.09508 0,-0.06201 0.02481,-0.124023 0.05374,-0.194303 0.04134,-0.107487 0.165364,-0.429948 0.165364,-0.587044 0,-0.21084 -0.148828,-0.314193 -0.351399,-0.314193 -0.227377,0 -0.372071,0.136426 -0.454753,0.243913 -0.02067,-0.152963 -0.14056,-0.243913 -0.285254,-0.243913 -0.103353,0 -0.173633,0.06615 -0.214974,0.152962 -0.07028,0.132292 -0.09922,0.272852 -0.09922,0.276986 0,0.0248 0.02067,0.03721 0.04547,0.03721 0.03307,0 0.03721,-0.0124 0.05788,-0.08268 0.03307,-0.14056 0.08268,-0.305925 0.202572,-0.305925 0.07441,0 0.09095,0.07028 0.09095,0.132292 0,0.04961 -0.01654,0.103353 -0.03721,0.198437 -0.0083,0.02067 -0.04961,0.186035 -0.06201,0.227376 l -0.103353,0.42168 c -0.0083,0.04134 -0.02481,0.111621 -0.02481,0.124024 0,0.06201 0.04961,0.08682 0.08682,0.08682 0.05374,0 0.09508,-0.03307 0.111621,-0.07028 0.0124,-0.01654 0.03307,-0.111621 0.04548,-0.169499 z m 0,0"
     style="fill:#000000;fill-opacity:1;fill-rule:nonzero;stroke:none;stroke-width:0.352778"
     aria-label="n"
     clip-path="none" />
  <path
     id="path153"
     d="m 17.089519,35.036065 c 0.04134,0 0.09922,0 0.09922,-0.06614 0,-0.06615 -0.06614,-0.06615 -0.111621,-0.06615 h -1.765267 c -0.04547,0 -0.111621,0 -0.111621,0.06615 0,0.06614 0.05788,0.06614 0.09922,0.06614 z m -0.0124,0.595313 c 0.04548,0 0.111622,0 0.111622,-0.06615 0,-0.06615 -0.05788,-0.06615 -0.09922,-0.06615 h -1.790072 c -0.04134,0 -0.09922,0 -0.09922,0.06615 0,0.06615 0.06615,0.06615 0.111621,0.06615 z m 1.075904,-0.235645 c 0.04547,-0.04134 0.16123,-0.132291 0.206705,-0.173633 0.173633,-0.16123 0.338998,-0.314192 0.338998,-0.570507 0,-0.334864 -0.28112,-0.549837 -0.63252,-0.549837 -0.334863,0 -0.558105,0.256315 -0.558105,0.504361 0,0.14056 0.111621,0.157097 0.148828,0.157097 0.05788,0 0.144694,-0.04134 0.144694,-0.148828 0,-0.144694 -0.14056,-0.144694 -0.173633,-0.144694 0.08268,-0.206706 0.272852,-0.276986 0.409277,-0.276986 0.26045,0 0.396875,0.223242 0.396875,0.458887 0,0.293522 -0.206705,0.504362 -0.537434,0.847493 l -0.355534,0.363802 c -0.03307,0.03307 -0.03307,0.03721 -0.03307,0.107487 h 1.112076 l 0.07855,-0.504362 h -0.08682 c -0.0083,0.05788 -0.02894,0.198438 -0.06201,0.252181 -0.01654,0.02067 -0.231511,0.02067 -0.276986,0.02067 h -0.500228 z m 0,0"
     style="fill:#000000;fill-opacity:1;fill-rule:nonzero;stroke:none;stroke-width:0.352778"
     aria-label="=2"
     clip-path="none" />
  <path
     id="path155"
     d="m 51.516539,30.876865 h 5.999977 m -5.999977,-5.999978 h 5.999977 m -5.999977,-5.999984 h 5.999977 m -5.999977,-5.999977 h 5.999977 M 51.516539,6.8769491 h 5.999977 M 51.516539,0.8790745 h 5.999977 M 51.516539,30.876865 V 0.87696489 M 57.514417,30.876865 V 0.87696489"
     style="fill:none;stroke:#000000;stroke-width:0.140582;stroke-linecap:butt;stroke-linejoin:miter;stroke-miterlimit:10;stroke-dasharray:none;stroke-opacity:1"
     clip-path="none" />
  <path
     id="path157"
     d="m 51.516539,30.876865 h 5.999977 m -5.999977,-5.999978 h 5.999977 m -5.999977,-5.999984 h 5.999977 m -5.999977,-5.999977 h 5.999977 M 51.516539,6.8769491 h 5.999977 M 51.516539,0.8790745 h 5.999977 M 51.516539,30.876865 V 0.87696489 M 57.514417,30.876865 V 0.87696489"
     style="fill:none;stroke:#000000;stroke-width:0.140582;stroke-linecap:butt;stroke-linejoin:miter;stroke-miterlimit:10;stroke-dasharray:none;stroke-opacity:1"
     clip-path="none" />
  <path
     id="path159"
     d="m 45.516555,24.876887 h 5.999984 m -5.999984,-5.999984 h 5.999984 m -5.999984,-5.999977 h 5.999984 M 45.516555,6.8790516 h 5.999984 M 45.516555,24.876887 V 6.8769491 M 51.514426,24.876887 V 6.8769491"
     style="fill:none;stroke:#000000;stroke-width:0.140582;stroke-linecap:butt;stroke-linejoin:miter;stroke-miterlimit:10;stroke-dasharray:none;stroke-opacity:1"
     clip-path="none" />
  <path
     id="path161"
     d="m 57.516516,24.876887 h 5.999977 m -5.999977,-5.999984 h 5.999977 m -5.999977,-5.999977 h 5.999977 M 57.516516,6.8790516 h 5.999977 M 57.516516,24.876887 V 6.8769491 M 63.514391,24.876887 V 6.8769491"
     style="fill:none;stroke:#000000;stroke-width:0.140582;stroke-linecap:butt;stroke-linejoin:miter;stroke-miterlimit:10;stroke-dasharray:none;stroke-opacity:1"
     clip-path="none" />
  <path
     id="path163"
     d="m 39.516578,18.876903 h 5.999977 m -5.999977,-5.997878 h 5.999977 m -5.999977,5.997878 v -5.999977 m 5.997874,5.999977 v -5.999977"
     style="fill:none;stroke:#000000;stroke-width:0.140582;stroke-linecap:butt;stroke-linejoin:miter;stroke-miterlimit:10;stroke-dasharray:none;stroke-opacity:1"
     clip-path="none" />
  <path
     id="path165"
     d="m 63.516493,18.876903 h 5.999984 m -5.999984,-5.997878 h 5.999984 m -5.999984,5.997878 v -5.999977 m 5.997875,5.999977 v -5.999977"
     style="fill:none;stroke:#000000;stroke-width:0.140582;stroke-linecap:butt;stroke-linejoin:miter;stroke-miterlimit:10;stroke-dasharray:none;stroke-opacity:1"
     clip-path="none" />
  <path
     id="path167"
     d="m 41.216211,32.108078 c 0,-0.08682 0,-0.107487 -0.05374,-0.107487 -0.235645,-0.0041 -0.615983,-0.03307 -0.963249,-0.202571 -0.413411,-0.206706 -0.570507,-0.450619 -0.669726,-0.599447 -0.0083,-0.02067 -0.03307,-0.02067 -0.08268,-0.02067 -0.08682,0 -0.09095,0.0041 -0.09095,0.09922 v 0.06201 c 0.520898,0.942578 1.389062,1.124479 1.781803,1.124479 0.07855,0 0.07855,-0.0041 0.07855,-0.107487 z m 0,0"
     style="fill:#000000;fill-opacity:1;fill-rule:nonzero;stroke:none;stroke-width:0.352778"
     aria-label="#"
     clip-path="none" />
  <path
     id="path169"
     d="M 41.178315,32.463154 H 52.784703 V 32.001368 H 41.178315 Z"
     style="fill:#000000;fill-opacity:1;fill-rule:nonzero;stroke:none;stroke-width:0.352778"
     clip-path="none" />
  <path
     id="path171"
     d="m 54.607642,33.12507 c -0.520898,-0.942578 -1.389062,-1.124479 -1.781803,-1.124479 -0.07855,0 -0.07855,0.0041 -0.07855,0.107487 v 0.248047 c 0,0.08682 0,0.107487 0.05374,0.107487 0.235645,0.0041 0.615983,0.03307 0.959115,0.202572 0.417545,0.210839 0.574642,0.450618 0.669726,0.60358 0.0124,0.01654 0.03721,0.01654 0.08682,0.01654 0.08682,0 0.09095,-0.0041 0.09095,-0.09922 z m 1.678451,-1.016992 c 0,-0.103353 0,-0.107487 -0.07855,-0.107487 -0.39274,0 -1.260904,0.186035 -1.781803,1.124479 v 0.06201 c 0,0.09509 0.0041,0.09922 0.09095,0.09922 0.07441,0 0.07855,-0.0041 0.09508,-0.02894 0.318327,-0.504362 0.847494,-0.777213 1.628841,-0.79375 0.04548,0 0.04548,-0.02894 0.04548,-0.107487 z m 0,0"
     style="fill:#000000;fill-opacity:1;fill-rule:nonzero;stroke:none;stroke-width:0.352778"
     aria-label="$%"
     clip-path="none" />
  <path
     id="path173"
     d="M 56.248275,32.463154 H 67.854663 V 32.001368 H 56.248275 Z"
     style="fill:#000000;fill-opacity:1;fill-rule:nonzero;stroke:none;stroke-width:0.352778"
     clip-path="none" />
  <path
     id="path175"
     d="m 69.677522,31.277121 c 0,-0.09509 -0.0041,-0.09922 -0.09095,-0.09922 -0.07441,0 -0.07855,0.0041 -0.09508,0.02894 -0.318327,0.504362 -0.847493,0.781348 -1.628841,0.79375 -0.04547,0 -0.04547,0.02894 -0.04547,0.107487 v 0.248047 c 0,0.103353 0,0.107487 0.07855,0.107487 0.392741,0 1.260905,-0.186035 1.781803,-1.124479 z m 0,0"
     style="fill:#000000;fill-opacity:1;fill-rule:nonzero;stroke:none;stroke-width:0.352778"
     aria-label="&amp;"
     clip-path="none" />
  <path
     id="path177"
     d="m 52.263598,35.507354 c 0.0083,-0.04134 0.03721,-0.148828 0.04547,-0.190169 0.03721,-0.148828 0.03721,-0.152962 0.103353,-0.248047 0.09095,-0.136426 0.223242,-0.260449 0.413412,-0.260449 0.09922,0 0.16123,0.05788 0.16123,0.190169 0,0.157097 -0.119889,0.475423 -0.173633,0.615983 -0.03721,0.09095 -0.03721,0.107487 -0.03721,0.144694 0,0.161231 0.132292,0.239779 0.256315,0.239779 0.272852,0 0.388607,-0.392741 0.388607,-0.429948 0,-0.02894 -0.02067,-0.03721 -0.04134,-0.03721 -0.03307,0 -0.04134,0.02067 -0.04961,0.04548 -0.06615,0.231511 -0.181902,0.343132 -0.289388,0.343132 -0.04548,0 -0.07028,-0.02894 -0.07028,-0.09508 0,-0.06201 0.0248,-0.124023 0.05374,-0.194303 0.04134,-0.107487 0.165365,-0.429948 0.165365,-0.587044 0,-0.21084 -0.148828,-0.314193 -0.3514,-0.314193 -0.227376,0 -0.37207,0.136426 -0.454753,0.243913 -0.02067,-0.152963 -0.14056,-0.243913 -0.285254,-0.243913 -0.103352,0 -0.173632,0.06615 -0.214974,0.152962 -0.07028,0.132292 -0.09922,0.272852 -0.09922,0.276986 0,0.0248 0.02067,0.03721 0.04547,0.03721 0.03307,0 0.03721,-0.0124 0.05788,-0.08268 0.03307,-0.14056 0.08268,-0.305925 0.202571,-0.305925 0.07441,0 0.09095,0.07028 0.09095,0.132292 0,0.04961 -0.01654,0.103353 -0.03721,0.198437 -0.0083,0.02067 -0.04961,0.186035 -0.06201,0.227376 l -0.103353,0.42168 c -0.0083,0.04134 -0.02481,0.111621 -0.02481,0.124024 0,0.06201 0.04961,0.08682 0.08682,0.08682 0.05374,0 0.09508,-0.03307 0.111621,-0.07028 0.0124,-0.01654 0.03307,-0.111621 0.04547,-0.169499 z m 0,0"
     style="fill:#000000;fill-opacity:1;fill-rule:nonzero;stroke:none;stroke-width:0.352778"
     aria-label="n"
     clip-path="none" />
  <path
     id="path179"
     d="m 55.568823,35.036065 c 0.04134,0 0.09922,0 0.09922,-0.06614 0,-0.06615 -0.06615,-0.06615 -0.111621,-0.06615 h -1.765267 c -0.04547,0 -0.111621,0 -0.111621,0.06615 0,0.06614 0.05788,0.06614 0.09922,0.06614 z m -0.0124,0.595313 c 0.04548,0 0.111621,0 0.111621,-0.06615 0,-0.06615 -0.05788,-0.06615 -0.09922,-0.06615 h -1.790071 c -0.04134,0 -0.09922,0 -0.09922,0.06615 0,0.06615 0.06615,0.06615 0.111621,0.06615 z m 0.992188,-0.599447 c 0.223242,0 0.363802,0.161231 0.363802,0.458887 0,0.3514 -0.202572,0.454753 -0.3514,0.454753 -0.152962,0 -0.363802,-0.05788 -0.463021,-0.206706 0.103353,0 0.173633,-0.06201 0.173633,-0.157097 0,-0.09095 -0.06615,-0.152962 -0.157096,-0.152962 -0.07442,0 -0.152963,0.04547 -0.152963,0.161231 0,0.264583 0.285254,0.438216 0.607715,0.438216 0.37207,0 0.63252,-0.256315 0.63252,-0.537435 0,-0.235645 -0.181901,-0.446484 -0.471289,-0.508496 0.223242,-0.07855 0.388606,-0.272852 0.388606,-0.496094 0,-0.223242 -0.252181,-0.384472 -0.545703,-0.384472 -0.30179,0 -0.529166,0.16123 -0.529166,0.376204 0,0.103353 0.07028,0.148828 0.144694,0.148828 0.08682,0 0.144694,-0.06201 0.144694,-0.144694 0,-0.103353 -0.09095,-0.14056 -0.152963,-0.144694 0.11989,-0.152962 0.334864,-0.165365 0.384473,-0.165365 0.07441,0 0.285254,0.02481 0.285254,0.314193 0,0.198438 -0.07855,0.314193 -0.119889,0.359668 -0.08268,0.08682 -0.148829,0.09095 -0.318327,0.103353 -0.05374,0.0041 -0.07855,0.0083 -0.07855,0.04134 0,0.04134 0.0248,0.04134 0.07441,0.04134 z m 0,0"
     style="fill:#000000;fill-opacity:1;fill-rule:nonzero;stroke:none;stroke-width:0.352778"
     aria-label="=3"
     clip-path="none" />
  <path
     id="path181"
     d="m 90.852164,30.877066 h 4.285629 m -4.285629,-4.285632 h 4.285629 m -4.285629,-4.285639 h 4.285629 m -4.285629,-4.28564 h 4.285629 m -4.285629,-4.285629 h 4.285629 M 90.852164,9.4488973 h 4.285629 M 90.852164,5.1632578 h 4.285629 M 90.852164,0.87912821 h 4.285629 M 90.852164,30.877066 V 0.87761832 M 95.136297,30.877066 V 0.87761832"
     style="fill:none;stroke:#000000;stroke-width:0.140582;stroke-linecap:butt;stroke-linejoin:miter;stroke-miterlimit:10;stroke-dasharray:none;stroke-opacity:1"
     clip-path="none" />
  <path
     id="path183"
     d="m 90.852164,30.877066 h 4.285629 m -4.285629,-4.285632 h 4.285629 m -4.285629,-4.285639 h 4.285629 m -4.285629,-4.28564 h 4.285629 m -4.285629,-4.285629 h 4.285629 M 90.852164,9.4488973 h 4.285629 M 90.852164,5.1632578 h 4.285629 M 90.852164,0.87912821 h 4.285629 M 90.852164,30.877066 V 0.87761832 M 95.136297,30.877066 V 0.87761832"
     style="fill:none;stroke:#000000;stroke-width:0.140582;stroke-linecap:butt;stroke-linejoin:miter;stroke-miterlimit:10;stroke-dasharray:none;stroke-opacity:1"
     clip-path="none" />
  <path
     id="path185"
     d="m 86.566525,26.591434 h 4.285639 m -4.285639,-4.285639 h 4.285639 m -4.285639,-4.28564 h 4.285639 m -4.285639,-4.285629 h 4.285639 M 86.566525,9.4488973 h 4.285639 M 86.566525,5.1647642 h 4.285639 M 86.566525,26.591434 V 5.1632578 M 90.850658,26.591434 V 5.1632578"
     style="fill:none;stroke:#000000;stroke-width:0.140582;stroke-linecap:butt;stroke-linejoin:miter;stroke-miterlimit:10;stroke-dasharray:none;stroke-opacity:1"
     clip-path="none" />
  <path
     id="path187"
     d="m 95.137793,26.591434 h 4.285629 m -4.285629,-4.285639 h 4.285629 m -4.285629,-4.28564 h 4.285629 m -4.285629,-4.285629 h 4.285629 M 95.137793,9.4488973 h 4.285629 M 95.137793,5.1647642 h 4.285629 M 95.137793,26.591434 V 5.1632578 M 99.421919,26.591434 V 5.1632578"
     style="fill:none;stroke:#000000;stroke-width:0.140582;stroke-linecap:butt;stroke-linejoin:miter;stroke-miterlimit:10;stroke-dasharray:none;stroke-opacity:1"
     clip-path="none" />
  <path
     id="path189"
     d="m 82.280885,22.305795 h 4.28564 m -4.28564,-4.28564 h 4.28564 m -4.28564,-4.285629 h 4.28564 m -4.28564,-4.2841259 h 4.28564 M 82.280885,22.305795 V 9.4488973 M 86.565018,22.305795 V 9.4488973"
     style="fill:none;stroke:#000000;stroke-width:0.140582;stroke-linecap:butt;stroke-linejoin:miter;stroke-miterlimit:10;stroke-dasharray:none;stroke-opacity:1"
     clip-path="none" />
  <path
     id="path191"
     d="m 99.423422,22.305795 h 4.285638 m -4.285638,-4.28564 h 4.285638 m -4.285638,-4.285629 h 4.285638 M 99.423422,9.4504001 h 4.285638 M 99.423422,22.305795 V 9.4488973 M 103.70756,22.305795 V 9.4488973"
     style="fill:none;stroke:#000000;stroke-width:0.140582;stroke-linecap:butt;stroke-linejoin:miter;stroke-miterlimit:10;stroke-dasharray:none;stroke-opacity:1"
     clip-path="none" />
  <path
     id="path193"
     d="m 77.995253,18.020155 h 4.285632 m -4.285632,-4.284133 h 4.285632 m -4.285632,4.284133 v -4.285629 m 4.284129,4.285629 v -4.285629"
     style="fill:none;stroke:#000000;stroke-width:0.140582;stroke-linecap:butt;stroke-linejoin:miter;stroke-miterlimit:10;stroke-dasharray:none;stroke-opacity:1"
     clip-path="none" />
  <path
     id="path195"
     d="m 103.70906,18.020155 h 4.28564 m -4.28564,-4.284133 h 4.28564 m -4.28564,4.284133 v -4.285629 m 4.28413,4.285629 v -4.285629"
     style="fill:none;stroke:#000000;stroke-width:0.140582;stroke-linecap:butt;stroke-linejoin:miter;stroke-miterlimit:10;stroke-dasharray:none;stroke-opacity:1"
     clip-path="none" />
  <path
     id="path197"
     d="m 79.69448,32.108078 c 0,-0.08682 0,-0.107487 -0.05374,-0.107487 -0.235645,-0.0041 -0.615983,-0.03307 -0.963249,-0.202571 -0.413411,-0.206706 -0.570508,-0.450619 -0.669726,-0.599447 -0.0083,-0.02067 -0.03307,-0.02067 -0.08268,-0.02067 -0.08682,0 -0.09095,0.0041 -0.09095,0.09922 v 0.06201 c 0.520898,0.942578 1.389062,1.124479 1.781803,1.124479 0.07855,0 0.07855,-0.0041 0.07855,-0.107487 z m 0,0"
     style="fill:#000000;fill-opacity:1;fill-rule:nonzero;stroke:none;stroke-width:0.352778"
     aria-label="#"
     clip-path="none" />
  <path
     id="path199"
     d="M 79.656843,32.463154 H 91.262879 V 32.001368 H 79.656843 Z"
     style="fill:#000000;fill-opacity:1;fill-rule:nonzero;stroke:none;stroke-width:0.352778"
     clip-path="none" />
  <path
     id="path201"
     d="m 93.085912,33.12507 c -0.520899,-0.942578 -1.389063,-1.124479 -1.781803,-1.124479 -0.07855,0 -0.07855,0.0041 -0.07855,0.107487 v 0.248047 c 0,0.08682 0,0.107487 0.05374,0.107487 0.235644,0.0041 0.615983,0.03307 0.959114,0.202572 0.417546,0.210839 0.574642,0.450618 0.669727,0.60358 0.0124,0.01654 0.03721,0.01654 0.08682,0.01654 0.08682,0 0.09095,-0.0041 0.09095,-0.09922 z m 1.67845,-1.016992 c 0,-0.103353 0,-0.107487 -0.07855,-0.107487 -0.392741,0 -1.260905,0.186035 -1.781803,1.124479 v 0.06201 c 0,0.09509 0.0041,0.09922 0.09095,0.09922 0.07441,0 0.07855,-0.0041 0.09508,-0.02894 0.318327,-0.504362 0.847493,-0.777213 1.628841,-0.79375 0.04548,0 0.04548,-0.02894 0.04548,-0.107487 z m 0,0"
     style="fill:#000000;fill-opacity:1;fill-rule:nonzero;stroke:none;stroke-width:0.352778"
     aria-label="$%"
     clip-path="none" />
  <path
     id="path203"
     d="M 94.726804,32.463154 H 106.33284 V 32.001368 H 94.726804 Z"
     style="fill:#000000;fill-opacity:1;fill-rule:nonzero;stroke:none;stroke-width:0.352778"
     clip-path="none" />
  <path
     id="path205"
     d="m 108.15579,31.277121 c 0,-0.09509 -0.004,-0.09922 -0.0909,-0.09922 -0.0744,0 -0.0785,0.0041 -0.0951,0.02894 -0.31833,0.504362 -0.84749,0.781348 -1.62884,0.79375 -0.0455,0 -0.0455,0.02894 -0.0455,0.107487 v 0.248047 c 0,0.103353 0,0.107487 0.0786,0.107487 0.39274,0 1.26091,-0.186035 1.7818,-1.124479 z m 0,0"
     style="fill:#000000;fill-opacity:1;fill-rule:nonzero;stroke:none;stroke-width:0.352778"
     aria-label="&amp;"
     clip-path="none" />
  <path
     id="path207"
     d="m 90.74187,35.507354 c 0.0083,-0.04134 0.03721,-0.148828 0.04547,-0.190169 0.03721,-0.148828 0.03721,-0.152962 0.103353,-0.248047 0.09095,-0.136426 0.223242,-0.260449 0.413411,-0.260449 0.09922,0 0.161231,0.05788 0.161231,0.190169 0,0.157097 -0.11989,0.475423 -0.173633,0.615983 -0.03721,0.09095 -0.03721,0.107487 -0.03721,0.144694 0,0.161231 0.132292,0.239779 0.256315,0.239779 0.272852,0 0.388607,-0.392741 0.388607,-0.429948 0,-0.02894 -0.02067,-0.03721 -0.04134,-0.03721 -0.03307,0 -0.04134,0.02067 -0.04961,0.04548 -0.06615,0.231511 -0.181901,0.343132 -0.289388,0.343132 -0.04547,0 -0.07028,-0.02894 -0.07028,-0.09508 0,-0.06201 0.02481,-0.124023 0.05374,-0.194303 0.04134,-0.107487 0.165364,-0.429948 0.165364,-0.587044 0,-0.21084 -0.148828,-0.314193 -0.351399,-0.314193 -0.227377,0 -0.372071,0.136426 -0.454753,0.243913 -0.02067,-0.152963 -0.14056,-0.243913 -0.285254,-0.243913 -0.103353,0 -0.173633,0.06615 -0.214974,0.152962 -0.07028,0.132292 -0.09922,0.272852 -0.09922,0.276986 0,0.0248 0.02067,0.03721 0.04548,0.03721 0.03307,0 0.03721,-0.0124 0.05788,-0.08268 0.03307,-0.14056 0.08268,-0.305925 0.202572,-0.305925 0.07441,0 0.09095,0.07028 0.09095,0.132292 0,0.04961 -0.01654,0.103353 -0.03721,0.198437 -0.0083,0.02067 -0.04961,0.186035 -0.06201,0.227376 l -0.103353,0.42168 c -0.0083,0.04134 -0.02481,0.111621 -0.02481,0.124024 0,0.06201 0.04961,0.08682 0.08682,0.08682 0.05374,0 0.09508,-0.03307 0.111621,-0.07028 0.0124,-0.01654 0.03307,-0.111621 0.04547,-0.169499 z m 0,0"
     style="fill:#000000;fill-opacity:1;fill-rule:nonzero;stroke:none;stroke-width:0.352778"
     aria-label="n"
     clip-path="none" />
  <path
     id="path209"
     d="m 94.047092,35.036065 c 0.04134,0 0.09922,0 0.09922,-0.06614 0,-0.06615 -0.06615,-0.06615 -0.111621,-0.06615 h -1.765267 c -0.04548,0 -0.111621,0 -0.111621,0.06615 0,0.06614 0.05788,0.06614 0.09922,0.06614 z m -0.0124,0.595313 c 0.04547,0 0.111621,0 0.111621,-0.06615 0,-0.06615 -0.05788,-0.06615 -0.09922,-0.06615 h -1.790071 c -0.04134,0 -0.09922,0 -0.09922,0.06615 0,0.06615 0.06615,0.06615 0.111621,0.06615 z m 1.389062,-1.480013 c 0,-0.05788 0,-0.07855 -0.05788,-0.07855 -0.03721,0 -0.04134,0.0041 -0.07028,0.04134 l -0.897103,1.302246 v 0.09095 h 0.79375 v 0.235645 c 0,0.103353 -0.0083,0.136426 -0.223242,0.136426 h -0.06615 v 0.09095 c 0.239778,-0.0083 0.243912,-0.0083 0.405143,-0.0083 0.16123,0 0.165365,0 0.405143,0.0083 v -0.09095 h -0.06615 c -0.214974,0 -0.223242,-0.03307 -0.223242,-0.136426 v -0.235645 h 0.297656 v -0.09095 h -0.297656 z m -0.21084,0.227376 v 1.037663 h -0.715201 z m 0,0"
     style="fill:#000000;fill-opacity:1;fill-rule:nonzero;stroke:none;stroke-width:0.352778"
     aria-label="=4"
     clip-path="none" />
  <path
     id="path211"
     d="m 129.80641,30.877037 h 3.33332 m -3.33332,-3.333322 h 3.33332 m -3.33332,-3.333323 h 3.33332 m -3.33332,-3.333323 h 3.33332 m -3.33332,-3.333323 h 3.33332 m -3.33332,-3.33332 h 3.33332 m -3.33332,-3.333319 h 3.33332 m -3.33332,-3.3333232 h 3.33332 m -3.33332,-3.333323 h 3.33332 m -3.33332,-3.33215529 h 3.33332 M 129.80641,30.877037 V 0.87713781 M 133.13856,30.877037 V 0.87713781"
     style="fill:none;stroke:#000000;stroke-width:0.140582;stroke-linecap:butt;stroke-linejoin:miter;stroke-miterlimit:10;stroke-dasharray:none;stroke-opacity:1"
     clip-path="none" />
  <path
     id="path213"
     d="m 129.80641,30.877037 h 3.33332 m -3.33332,-3.333322 h 3.33332 m -3.33332,-3.333323 h 3.33332 m -3.33332,-3.333323 h 3.33332 m -3.33332,-3.333323 h 3.33332 m -3.33332,-3.33332 h 3.33332 m -3.33332,-3.333319 h 3.33332 m -3.33332,-3.3333232 h 3.33332 m -3.33332,-3.333323 h 3.33332 m -3.33332,-3.33215529 h 3.33332 M 129.80641,30.877037 V 0.87713781 M 133.13856,30.877037 V 0.87713781"
     style="fill:none;stroke:#000000;stroke-width:0.140582;stroke-linecap:butt;stroke-linejoin:miter;stroke-miterlimit:10;stroke-dasharray:none;stroke-opacity:1"
     clip-path="none" />
  <path
     id="path215"
     d="m 126.47308,27.543715 h 3.33333 m -3.33333,-3.333323 h 3.33333 m -3.33333,-3.333323 h 3.33333 m -3.33333,-3.333323 h 3.33333 m -3.33333,-3.33332 h 3.33333 m -3.33333,-3.333319 h 3.33333 m -3.33333,-3.3333232 h 3.33333 m -3.33333,-3.3321553 h 3.33333 M 126.47308,27.543715 V 4.2104608 m 3.33216,23.3332542 V 4.2104608"
     style="fill:none;stroke:#000000;stroke-width:0.140582;stroke-linecap:butt;stroke-linejoin:miter;stroke-miterlimit:10;stroke-dasharray:none;stroke-opacity:1"
     clip-path="none" />
  <path
     id="path217"
     d="m 133.13973,27.543715 h 3.33332 m -3.33332,-3.333323 h 3.33332 m -3.33332,-3.333323 h 3.33332 m -3.33332,-3.333323 h 3.33332 m -3.33332,-3.33332 h 3.33332 m -3.33332,-3.333319 h 3.33332 m -3.33332,-3.3333232 h 3.33332 m -3.33332,-3.3321553 h 3.33332 M 133.13973,27.543715 V 4.2104608 m 3.33214,23.3332542 V 4.2104608"
     style="fill:none;stroke:#000000;stroke-width:0.140582;stroke-linecap:butt;stroke-linejoin:miter;stroke-miterlimit:10;stroke-dasharray:none;stroke-opacity:1"
     clip-path="none" />
  <path
     id="path219"
     d="m 123.13976,24.210392 h 3.33332 m -3.33332,-3.333323 h 3.33332 m -3.33332,-3.333323 h 3.33332 m -3.33332,-3.33332 h 3.33332 m -3.33332,-3.333319 h 3.33332 m -3.33332,-3.3321555 h 3.33332 M 123.13976,24.210392 V 7.5437838 m 3.33216,16.6666082 V 7.5437838"
     style="fill:none;stroke:#000000;stroke-width:0.140582;stroke-linecap:butt;stroke-linejoin:miter;stroke-miterlimit:10;stroke-dasharray:none;stroke-opacity:1"
     clip-path="none" />
  <path
     id="path221"
     d="m 136.47305,24.210392 h 3.33332 m -3.33332,-3.333323 h 3.33332 m -3.33332,-3.333323 h 3.33332 m -3.33332,-3.33332 h 3.33332 m -3.33332,-3.333319 h 3.33332 m -3.33332,-3.3321555 h 3.33332 M 136.47305,24.210392 V 7.5437838 M 139.8052,24.210392 V 7.5437838"
     style="fill:none;stroke:#000000;stroke-width:0.140582;stroke-linecap:butt;stroke-linejoin:miter;stroke-miterlimit:10;stroke-dasharray:none;stroke-opacity:1"
     clip-path="none" />
  <path
     id="path223"
     d="m 119.80644,20.877069 h 3.33332 m -3.33332,-3.333323 h 3.33332 m -3.33332,-3.33332 h 3.33332 m -3.33332,-3.332145 h 3.33332 m -3.33332,9.998788 v -9.999962 m 3.33215,9.999962 v -9.999962"
     style="fill:none;stroke:#000000;stroke-width:0.140582;stroke-linecap:butt;stroke-linejoin:miter;stroke-miterlimit:10;stroke-dasharray:none;stroke-opacity:1"
     clip-path="none" />
  <path
     id="path225"
     d="m 139.80637,20.877069 h 3.33332 m -3.33332,-3.333323 h 3.33332 m -3.33332,-3.33332 h 3.33332 m -3.33332,-3.332145 h 3.33332 m -3.33332,9.998788 v -9.999962 m 3.33215,9.999962 v -9.999962"
     style="fill:none;stroke:#000000;stroke-width:0.140582;stroke-linecap:butt;stroke-linejoin:miter;stroke-miterlimit:10;stroke-dasharray:none;stroke-opacity:1"
     clip-path="none" />
  <path
     id="path227"
     d="m 116.47311,17.543746 h 3.33333 m -3.33333,-3.332152 h 3.33333 m -3.33333,3.332152 v -3.33332 m 3.33215,3.33332 v -3.33332"
     style="fill:none;stroke:#000000;stroke-width:0.140582;stroke-linecap:butt;stroke-linejoin:miter;stroke-miterlimit:10;stroke-dasharray:none;stroke-opacity:1"
     clip-path="none" />
  <path
     id="path229"
     d="m 143.13969,17.543746 h 3.33332 m -3.33332,-3.332152 h 3.33332 m -3.33332,3.332152 v -3.33332 m 3.33216,3.33332 v -3.33332"
     style="fill:none;stroke:#000000;stroke-width:0.140582;stroke-linecap:butt;stroke-linejoin:miter;stroke-miterlimit:10;stroke-dasharray:none;stroke-opacity:1"
     clip-path="none" />
  <path
     id="path231"
     d="m 118.17275,32.108078 c 0,-0.08682 0,-0.107487 -0.0537,-0.107487 -0.23565,-0.0041 -0.61599,-0.03307 -0.96325,-0.202571 -0.41341,-0.206706 -0.57051,-0.450619 -0.66973,-0.599447 -0.008,-0.02067 -0.0331,-0.02067 -0.0827,-0.02067 -0.0868,0 -0.091,0.0041 -0.091,0.09922 v 0.06201 c 0.5209,0.942578 1.38906,1.124479 1.7818,1.124479 0.0785,0 0.0785,-0.0041 0.0785,-0.107487 z m 0,0"
     style="fill:#000000;fill-opacity:1;fill-rule:nonzero;stroke:none;stroke-width:0.352778"
     aria-label="#"
     clip-path="none" />
  <path
     id="path233"
     d="m 118.13502,32.463154 h 11.60639 v -0.461786 h -11.60639 z"
     style="fill:#000000;fill-opacity:1;fill-rule:nonzero;stroke:none;stroke-width:0.352778"
     clip-path="none" />
  <path
     id="path235"
     d="m 131.56419,33.12507 c -0.5209,-0.942578 -1.38907,-1.124479 -1.78181,-1.124479 -0.0785,0 -0.0785,0.0041 -0.0785,0.107487 v 0.248047 c 0,0.08682 0,0.107487 0.0537,0.107487 0.23564,0.0041 0.61598,0.03307 0.95911,0.202572 0.41755,0.210839 0.57464,0.450618 0.66973,0.60358 0.0124,0.01654 0.0372,0.01654 0.0868,0.01654 0.0868,0 0.0909,-0.0041 0.0909,-0.09922 z m 1.67845,-1.016992 c 0,-0.103353 0,-0.107487 -0.0786,-0.107487 -0.39274,0 -1.26091,0.186035 -1.78181,1.124479 v 0.06201 c 0,0.09509 0.004,0.09922 0.091,0.09922 0.0744,0 0.0785,-0.0041 0.0951,-0.02894 0.31833,-0.504362 0.84749,-0.777213 1.62884,-0.79375 0.0455,0 0.0455,-0.02894 0.0455,-0.107487 z m 0,0"
     style="fill:#000000;fill-opacity:1;fill-rule:nonzero;stroke:none;stroke-width:0.352778"
     aria-label="$%"
     clip-path="none" />
  <path
     id="path237"
     d="m 133.20498,32.463154 h 11.60639 v -0.461786 h -11.60639 z"
     style="fill:#000000;fill-opacity:1;fill-rule:nonzero;stroke:none;stroke-width:0.352778"
     clip-path="none" />
  <path
     id="path239"
     d="m 146.63407,31.277121 c 0,-0.09509 -0.004,-0.09922 -0.091,-0.09922 -0.0744,0 -0.0785,0.0041 -0.0951,0.02894 -0.31833,0.504362 -0.84749,0.781348 -1.62884,0.79375 -0.0455,0 -0.0455,0.02894 -0.0455,0.107487 v 0.248047 c 0,0.103353 0,0.107487 0.0786,0.107487 0.39274,0 1.26091,-0.186035 1.78181,-1.124479 z m 0,0"
     style="fill:#000000;fill-opacity:1;fill-rule:nonzero;stroke:none;stroke-width:0.352778"
     aria-label="&amp;"
     clip-path="none" />
  <path
     id="path241"
     d="m 129.22014,35.507354 c 0.008,-0.04134 0.0372,-0.148828 0.0455,-0.190169 0.0372,-0.148828 0.0372,-0.152962 0.10335,-0.248047 0.091,-0.136426 0.22324,-0.260449 0.41341,-0.260449 0.0992,0 0.16123,0.05788 0.16123,0.190169 0,0.157097 -0.11989,0.475423 -0.17363,0.615983 -0.0372,0.09095 -0.0372,0.107487 -0.0372,0.144694 0,0.161231 0.1323,0.239779 0.25632,0.239779 0.27285,0 0.38861,-0.392741 0.38861,-0.429948 0,-0.02894 -0.0207,-0.03721 -0.0413,-0.03721 -0.0331,0 -0.0413,0.02067 -0.0496,0.04548 -0.0661,0.231511 -0.1819,0.343132 -0.28938,0.343132 -0.0455,0 -0.0703,-0.02894 -0.0703,-0.09508 0,-0.06201 0.0248,-0.124023 0.0537,-0.194303 0.0413,-0.107487 0.16537,-0.429948 0.16537,-0.587044 0,-0.21084 -0.14883,-0.314193 -0.3514,-0.314193 -0.22738,0 -0.37207,0.136426 -0.45476,0.243913 -0.0207,-0.152963 -0.14056,-0.243913 -0.28525,-0.243913 -0.10335,0 -0.17363,0.06615 -0.21498,0.152962 -0.0703,0.132292 -0.0992,0.272852 -0.0992,0.276986 0,0.0248 0.0207,0.03721 0.0455,0.03721 0.0331,0 0.0372,-0.0124 0.0579,-0.08268 0.0331,-0.14056 0.0827,-0.305925 0.20257,-0.305925 0.0744,0 0.0909,0.07028 0.0909,0.132292 0,0.04961 -0.0165,0.103353 -0.0372,0.198437 -0.008,0.02067 -0.0496,0.186035 -0.062,0.227376 l -0.10335,0.42168 c -0.008,0.04134 -0.0248,0.111621 -0.0248,0.124024 0,0.06201 0.0496,0.08682 0.0868,0.08682 0.0537,0 0.0951,-0.03307 0.11162,-0.07028 0.0124,-0.01654 0.0331,-0.111621 0.0455,-0.169499 z m 0,0"
     style="fill:#000000;fill-opacity:1;fill-rule:nonzero;stroke:none;stroke-width:0.352778"
     aria-label="n"
     clip-path="none" />
  <path
     id="path243"
     d="m 132.52536,35.036065 c 0.0413,0 0.0992,0 0.0992,-0.06614 0,-0.06615 -0.0661,-0.06615 -0.11162,-0.06615 h -1.76527 c -0.0455,0 -0.11162,0 -0.11162,0.06615 0,0.06614 0.0579,0.06614 0.0992,0.06614 z m -0.0124,0.595313 c 0.0455,0 0.11162,0 0.11162,-0.06615 0,-0.06615 -0.0579,-0.06615 -0.0992,-0.06615 h -1.79007 c -0.0413,0 -0.0992,0 -0.0992,0.06615 0,0.06615 0.0662,0.06615 0.11162,0.06615 z m 0.67386,-1.240234 c 0.0372,0.0124 0.14883,0.03721 0.26872,0.03721 0.3514,0 0.56224,-0.243913 0.56224,-0.289388 0,-0.02894 -0.0165,-0.03721 -0.0331,-0.03721 -0.004,0 -0.008,0 -0.0372,0.0124 -0.10749,0.04134 -0.23565,0.07855 -0.38861,0.07855 -0.16536,0 -0.30179,-0.04548 -0.39274,-0.07855 -0.0248,-0.0124 -0.0331,-0.0124 -0.0331,-0.0124 -0.0372,0 -0.0372,0.02894 -0.0372,0.08268 v 0.822689 c 0,0.04961 0,0.08268 0.0455,0.08268 0.0207,0 0.0289,-0.0124 0.0455,-0.03307 0.0331,-0.04134 0.14056,-0.186035 0.37621,-0.186035 0.15709,0 0.23564,0.128157 0.26044,0.181901 0.0455,0.103353 0.0538,0.23151 0.0538,0.343131 0,0.103353 -0.004,0.252181 -0.0827,0.376205 -0.0538,0.08682 -0.16537,0.173633 -0.3142,0.173633 -0.1819,0 -0.3638,-0.115756 -0.42581,-0.297657 0.008,0 0.0248,0 0.0248,0 0.0786,0 0.14056,-0.04961 0.14056,-0.136426 0,-0.103352 -0.0785,-0.140559 -0.13642,-0.140559 -0.0496,0 -0.14056,0.02894 -0.14056,0.148828 0,0.252181 0.21911,0.508496 0.54157,0.508496 0.3514,0 0.64905,-0.272852 0.64905,-0.620117 0,-0.326595 -0.23564,-0.615983 -0.56637,-0.615983 -0.14056,0 -0.27285,0.04548 -0.38034,0.140559 z m 0,0"
     style="fill:#000000;fill-opacity:1;fill-rule:nonzero;stroke:none;stroke-width:0.352778"
     aria-label="=5"
     clip-path="none" />
</svg>
